0
SECTION
2
HEADER
9
$INSUNITS
70
5
9
$ACADVER
1
AC1014
9
$HANDSEED
5
FFFF
0
ENDSEC
0
SECTION
2
TABLES
0
TABLE
2
VPORT
5
8
100
AcDbSymbolTable
0
ENDTAB
0
TABLE
2
LTYPE
5
5
100
AcDbSymbolTable
0
LTYPE
5
14
100
AcDbSymbolTableRecord
100
AcDbLinetypeTableRecord
2
BYBLOCK
70
0
0
LTYPE
5
15
100
AcDbSymbolTableRecord
100
AcDbLinetypeTableRecord
2
BYLAYER
70
0
0
ENDTAB
0
TABLE
2
LAYER
5
2
100
AcDbSymbolTable
70
2
0
LAYER
5
50
100
AcDbSymbolTableRecord
100
AcDbLayerTableRecord
2
0
70
0
6
CONTINUOUS
0
ENDTAB
0
TABLE
2
STYLE
5
3
100
AcDbSymbolTable
70
1
0
STYLE
5
11
100
AcDbSymbolTableRecord
100
AcDbTextStyleTableRecord
2
STANDARD
70
0
0
ENDTAB
0
TABLE
2
VIEW
5
6
100
AcDbSymbolTable
70
0
0
ENDTAB
0
TABLE
2
UCS
5
7
100
AcDbSymbolTable
70
0
0
ENDTAB
0
TABLE
2
APPID
5
9
100
AcDbSymbolTable
70
2
0
APPID
5
12
100
AcDbSymbolTableRecord
100
AcDbRegAppTableRecord
2
ACAD
70
0
0
ENDTAB
0
TABLE
2
DIMSTYLE
5
A
100
AcDbSymbolTable
70
1
0
ENDTAB
0
TABLE
2
BLOCK_RECORD
5
1
100
AcDbSymbolTable
70
1
0
BLOCK_RECORD
5
1F
100
AcDbSymbolTableRecord
100
AcDbBlockTableRecord
2
*MODEL_SPACE
0
BLOCK_RECORD
5
1B
100
AcDbSymbolTableRecord
100
AcDbBlockTableRecord
2
*PAPER_SPACE
0
ENDTAB
0
ENDSEC
0
SECTION
2
BLOCKS
0
BLOCK
5
20
100
AcDbEntity
100
AcDbBlockBegin
2
*MODEL_SPACE
0
ENDBLK
5
21
100
AcDbEntity
100
AcDbBlockEnd
0
BLOCK
5
1C
100
AcDbEntity
100
AcDbBlockBegin
2
*PAPER_SPACE
0
ENDBLK
5
1D
100
AcDbEntity
100
AcDbBlockEnd
0
ENDSEC
0
SECTION
2
ENTITIES
0
LWPOLYLINE
5
100
100
AcDbEntity
8
0
100
AcDbPolyline
90
32
70
1
43
0.0
10
6.7574393614142991
20
24.015395582508496
10
6.7574393614142991
20
22.490395582508494
10
6.2574393614142991
20
22.490395582508494
10
6.2574393614142991
20
21.015395582508496
10
6.7574393614142991
20
21.015395582508496
10
6.7574393614142991
20
19.490395582508494
10
6.2574393614142991
20
19.490395582508494
10
6.2574393614142991
20
18.015395582508496
10
11.257439361414299
20
18.015395582508496
10
11.257439361414299
20
19.490395582508494
10
10.757439361414299
20
19.490395582508494
10
10.757439361414299
20
21.015395582508496
10
11.257439361414299
20
21.015395582508496
10
11.257439361414299
20
22.490395582508494
10
10.757439361414299
20
22.490395582508494
10
10.757439361414299
20
24.015395582508496
10
11.257439361414299
20
24.015395582508496
10
11.257439361414299
20
25.490395582508494
10
10.757439361414299
20
25.490395582508494
10
10.757439361414299
20
26.556395582508493
10
10.257358588811186
20
26.556355208425067
10
10.257398979186462
20
26.056072642010548
10
9.2573989791864619
20
26.056072642010548
10
9.2573989791864619
20
26.556274476561502
10
8.2573989824455438
20
26.556193741437276
10
8.2574393597847617
20
26.056072642010548
10
7.2574393597847617
20
26.056072642010548
10
7.2574393597847617
20
26.556113009572663
10
6.7574393614142991
20
26.556072642010548
10
6.7574393614142991
20
25.490395582508494
10
6.2574393614142991
20
25.490395582508494
10
6.2574393614142991
20
24.015395582508496
0
LWPOLYLINE
5
101
100
AcDbEntity
8
0
100
AcDbPolyline
90
34
70
1
43
0.0
10
-0.45611647213968354
20
33.713348847579525
10
-0.75702398371566915
20
33.314031092555851
10
-1.1563417387393429
20
33.614938604131837
10
-1.7581567618913141
20
32.816303094084475
10
-1.3588390068676333
20
32.515395582508496
10
-3.258156761904722
20
32.515395582508496
10
-3.258156761904722
20
34.015072642010551
10
-3.758156761904722
20
34.015072642010551
10
-3.758156761904722
20
35.490072642010546
10
-3.258156761904722
20
35.490072642010546
10
-3.258156761904722
20
37.015072642010551
10
-3.758156761904722
20
37.015072642010551
10
-3.758156761904722
20
38.490072642010546
10
-3.258156761904722
20
38.490072642010546
10
-3.258156761904722
20
40.015072642010551
10
-3.758156761904722
20
40.015072642010551
10
-3.758156761904722
20
40.556072642010548
10
-2.5348459558846699
20
40.556072642010548
10
-2.5348459558846699
20
41.056072642010548
10
-1.5348459558846699
20
41.056072642010548
10
-1.5348459558846699
20
40.556072642010548
10
-0.53484595588466988
20
40.556072642010548
10
-0.53484595588466988
20
41.056072642010548
10
-0.034845955884669877
20
41.056072642010548
10
-0.034845955884669877
20
39.788072642010547
10
0.46515404411533012
20
39.788072642010547
10
0.46515404411533012
20
38.313072642010553
10
-0.034845955909659665
20
38.313072642015101
10
-0.03484595592354367
20
36.788072642015102
10
0.46518410166447666
20
36.788072642015102
10
0.465195008937485
20
34.935970477642663
10
0.14569855101228768
20
34.511984357626879
10
-0.25361920401139315
20
34.812891869202865
10
-0.85543422716335726
20
34.01425635915551
0
LWPOLYLINE
5
102
100
AcDbEntity
8
0
100
AcDbPolyline
90
34
70
1
43
0.0
10
12.96515404411533
20
40.556072642010548
10
12.96515404411533
20
41.056072642010548
10
13.96515404411533
20
41.056072642010548
10
13.96515404411533
20
40.556072642010548
10
14.96515404411533
20
40.556072642010548
10
14.96515404411533
20
41.056072642010548
10
15.46515404411533
20
41.056072642010548
10
15.46515404411533
20
39.788072642010547
10
15.96515404411533
20
39.788072642010547
10
15.96515404411533
20
38.313072642010553
10
15.46515404409034
20
38.313072642015101
10
15.465154044076456
20
36.788072642015102
10
15.965184101664477
20
36.788072642015102
10
15.965195008937485
20
34.935970477642663
10
15.645698551012288
20
34.511984357626879
10
15.246380795988607
20
34.812891869202865
10
14.644565772836643
20
34.01425635915551
10
15.043883527860316
20
33.713348847579525
10
14.742976016284331
20
33.314031092555851
10
14.343658261260657
20
33.614938604131837
10
13.741843238108686
20
32.816303094084475
10
14.141160993132367
20
32.515395582508496
10
12.241843238095278
20
32.515395582508496
10
12.241843238095278
20
34.015072642010551
10
11.741843238095278
20
34.015072642010551
10
11.741843238095278
20
35.490072642010546
10
12.241843238095278
20
35.490072642010546
10
12.241843238095278
20
37.015072642010551
10
11.741843238095278
20
37.015072642010551
10
11.741843238095278
20
38.490072642010546
10
12.241843238095278
20
38.490072642010546
10
12.241843238095278
20
40.015072642010551
10
11.741843238095278
20
40.015072642010551
10
11.741843238095278
20
40.556072642010548
0
LWPOLYLINE
5
103
100
AcDbEntity
8
0
100
AcDbPolyline
90
32
70
1
43
0.0
10
10.257358588811186
20
41.056355208425067
10
10.257398979186462
20
40.556072642010548
10
9.2573989791864619
20
40.556072642010548
10
9.2573989791864619
20
41.056274476561498
10
8.2573989824455438
20
41.056193741437276
10
8.2574393597847617
20
40.556072642010548
10
7.2574393597847617
20
40.556072642010548
10
7.2574393597847617
20
41.056113009572663
10
6.7574393614142991
20
41.056072642010548
10
6.7574393614142991
20
39.990395582508498
10
6.2574393614142991
20
39.990395582508498
10
6.2574393614142991
20
38.515395582508496
10
6.7574393614142991
20
38.515395582508496
10
6.7574393614142991
20
36.990395582508498
10
6.2574393614142991
20
36.990395582508498
10
6.2574393614142991
20
35.515395582508496
10
6.7574393614142991
20
35.515395582508496
10
6.7574393614142991
20
33.990395582508498
10
6.2574393614142991
20
33.990395582508498
10
6.2574393614142991
20
32.515395582508496
10
11.257439361414299
20
32.515395582508496
10
11.257439361414299
20
33.990395582508498
10
10.757439361414299
20
33.990395582508498
10
10.757439361414299
20
35.515395582508496
10
11.257439361414299
20
35.515395582508496
10
11.257439361414299
20
36.990395582508498
10
10.757439361414299
20
36.990395582508498
10
10.757439361414299
20
38.515395582508496
10
11.257439361414299
20
38.515395582508496
10
11.257439361414299
20
39.990395582508498
10
10.757439361414299
20
39.990395582508498
10
10.757439361414299
20
41.056395582508493
0
LWPOLYLINE
5
104
100
AcDbEntity
8
0
100
AcDbPolyline
90
34
70
1
43
0.0
10
2.1376906336997763
20
34.812924194081774
10
2.739482297819066
20
34.014271082276316
10
2.3401557419163339
20
33.713375250216671
10
2.6410515739759788
20
33.314048694313946
10
3.0403781298787038
20
33.614944526373591
10
3.6421697939980007
20
32.816291414568141
10
3.2428432380952756
20
32.515395582508489
10
5.1418432380952765
20
32.515395582508489
10
5.1418432380952765
20
34.015072642010551
10
5.6418432380952765
20
34.015072642010551
10
5.6418432380952765
20
35.490072642010546
10
5.1418432380952765
20
35.490072642010546
10
5.1418432380952765
20
37.015072642010551
10
5.6418432380952765
20
37.015072642010551
10
5.6418432380952765
20
38.490072642010546
10
5.1418432380952765
20
38.490072642010546
10
5.1418432380952765
20
40.015072642010551
10
5.641843237903899
20
40.015072642010551
10
5.6418432380952765
20
40.556072642010548
10
4.4188432380952776
20
40.556072642010548
10
4.4188432380952776
20
41.056072642010548
10
3.4188432380952776
20
41.056072642010548
10
3.4188432380952776
20
40.556072642010548
10
2.4188432380952776
20
40.556072642010548
10
2.4188432380952776
20
41.056072642010548
10
1.9188432380952776
20
41.056072642010548
10
1.9188432380952776
20
39.788072642010547
10
1.4188432380952776
20
39.788072642010547
10
1.4188432380952776
20
38.313072642010553
10
1.9188432380952776
20
38.313072642010553
10
1.9188432380952776
20
36.788072642010547
10
1.4188432380952776
20
36.788072642010547
10
1.4188432380952776
20
34.936072642010551
10
1.7383640777970442
20
34.512028362022122
0
LWPOLYLINE
5
105
100
AcDbEntity
8
0
100
AcDbPolyline
90
34
70
1
43
0.0
10
1.4188432380952776
20
20.436072642010551
10
1.7383640777970442
20
20.012028362022122
10
2.1376906336997763
20
20.312924194081774
10
2.739482297819066
20
19.514271082276316
10
2.3401557419163339
20
19.213375250216675
10
2.6410515739759788
20
18.814048694313946
10
3.0403781298787038
20
19.114944526373591
10
3.6421697939980007
20
18.316291414568141
10
3.2428432380952756
20
18.015395582508493
10
5.1418432380952765
20
18.015395582508493
10
5.1418432380952765
20
19.515072642010551
10
5.6418432380952765
20
19.515072642010551
10
5.6418432380952765
20
20.990072642010549
10
5.1418432380952765
20
20.990072642010549
10
5.1418432380952765
20
22.515072642010551
10
5.6418432380952765
20
22.515072642010551
10
5.6418432380952765
20
23.990072642010549
10
5.1418432380952765
20
23.990072642010549
10
5.1418432380952765
20
25.515072642010551
10
5.641843237903899
20
25.515072642010551
10
5.6418432380952765
20
26.056072642010548
10
4.4188432380952776
20
26.056072642010548
10
4.4188432380952776
20
26.556072642010548
10
3.4188432380952776
20
26.556072642010548
10
3.4188432380952776
20
26.056072642010548
10
2.4188432380952776
20
26.056072642010548
10
2.4188432380952776
20
26.556072642010548
10
1.9188432380952776
20
26.556072642010548
10
1.9188432380952776
20
25.288072642010547
10
1.4188432380952776
20
25.288072642010547
10
1.4188432380952776
20
23.81307264201055
10
1.9188432380952776
20
23.81307264201055
10
1.9188432380952776
20
22.288072642010547
10
1.4188432380952776
20
22.288072642010547
0
LWPOLYLINE
5
106
100
AcDbEntity
8
0
100
AcDbPolyline
90
36
70
1
43
0.0
10
1.9824393614143005
20
30.867820597187311
10
1.457439361414302
20
30.867820597187311
10
1.457439361414302
20
30.342820597187313
10
0.95743936141430197
20
30.342820597187313
10
0.95743936141430197
20
29.392820597187313
10
1.457439361414302
20
29.392820597187313
10
1.457439361414302
20
28.342820597187313
10
0.95743936141430197
20
28.342820597187313
10
0.95743936141430197
20
27.144820597187312
10
1.4324393614142963
20
27.144820597187312
10
1.4324393614142963
20
27.644820597187312
10
1.9824393614143005
20
27.644820597187312
10
1.9824393614143005
20
27.144820597187312
10
2.9324393614142963
20
27.144820597187312
10
2.9324393614142963
20
27.644820597187312
10
3.9824393614143005
20
27.644820597187312
10
3.9824393614143005
20
27.144820597187312
10
4.9324393614142963
20
27.144820597187312
10
4.9324393614142963
20
27.644820597187312
10
5.4824393614143005
20
27.644820597187312
10
5.4824393614143005
20
27.144820597187312
10
5.957439361414302
20
27.144820597187312
10
5.957439361414302
20
28.342820597187313
10
5.457439361414302
20
28.342820597187313
10
5.457439361414302
20
29.392820597187313
10
5.957439361414302
20
29.392820597187313
10
5.957439361414302
20
30.342820597187313
10
5.457439361414302
20
30.342820597187313
10
5.457439361414302
20
30.867820597187311
10
4.9324393614142963
20
30.867820597187311
10
4.9324393614142963
20
31.367820597187311
10
3.9824393614143005
20
31.367820597187311
10
3.9824393614143005
20
30.867820597187311
10
2.9324393614142963
20
30.867820597187311
10
2.9324393614142963
20
31.367820597187311
10
1.9824393614143005
20
31.367820597187311
0
LWPOLYLINE
5
107
100
AcDbEntity
8
0
100
AcDbPolyline
90
24
70
1
43
0.0
10
11.506951998158627
20
27.088072642010545
10
11.506951998158627
20
27.588072642010545
10
13.031951998158625
20
27.588072642010545
10
13.031951998158625
20
27.088072642010545
10
14.506951998158627
20
27.088072642010545
10
14.506951998158627
20
27.588072642010545
10
16.006951998158627
20
27.588072642010545
10
16.006951998158627
20
31.588072642010545
10
14.506951998158627
20
31.588072642010545
10
14.506951998158627
20
32.088072642010545
10
13.031951998158625
20
32.088072642010545
10
13.031951998158625
20
31.588072642010545
10
11.506951998158627
20
31.588072642010545
10
11.506951998158627
20
32.088072642010545
10
10.263951998158625
20
32.088072642010545
10
10.263951998158625
20
31.088072642010545
10
10.763951998158625
20
31.088072642010545
10
10.763951998158625
20
30.088072642010545
10
10.263951998158625
20
30.088072642010545
10
10.263951998158625
20
29.088072642010545
10
10.763951998158625
20
29.088072642010545
10
10.763951998158625
20
28.088072642010545
10
10.263951998158625
20
28.088072642010545
10
10.263951998158625
20
27.088072642010545
0
LWPOLYLINE
5
108
100
AcDbEntity
8
0
100
AcDbPolyline
90
34
70
1
43
0.0
10
15.46515404411533
20
25.288072642010547
10
15.46515404411533
20
26.556072642010548
10
14.96515404411533
20
26.556072642010548
10
14.96515404411533
20
26.056072642010548
10
13.96515404411533
20
26.056072642010548
10
13.96515404411533
20
26.556072642010548
10
12.96515404411533
20
26.556072642010548
10
12.96515404411533
20
26.056072642010548
10
11.741843238095278
20
26.056072642010548
10
11.741843238095278
20
25.515072642010551
10
12.241843238095278
20
25.515072642010551
10
12.241843238095278
20
23.990072642010549
10
11.741843238095278
20
23.990072642010549
10
11.741843238095278
20
22.515072642010551
10
12.241843238095278
20
22.515072642010551
10
12.241843238095278
20
20.990072642010549
10
11.741843238095278
20
20.990072642010549
10
11.741843238095278
20
19.515072642010551
10
12.241843238095278
20
19.515072642010551
10
12.241843238095278
20
18.015395582508496
10
14.141160993132367
20
18.015395582508496
10
13.741843238108686
20
18.316303094084478
10
14.343658261260657
20
19.114938604131833
10
14.742976016284331
20
18.814031092555847
10
15.043883527860316
20
19.213348847579525
10
14.644565772836643
20
19.51425635915551
10
15.246380795988607
20
20.312891869202865
10
15.645698551012288
20
20.011984357626879
10
15.965195008937485
20
20.435970477642663
10
15.965184101664477
20
22.288072642015102
10
15.465154044076456
20
22.288072642015102
10
15.46515404409034
20
23.813072642015104
10
15.96515404411533
20
23.81307264201055
10
15.96515404411533
20
25.288072642010547
0
CIRCLE
5
109
100
AcDbEntity
8
0
100
AcDbCircle
10
-7.8084277350266404
20
28.153575921921224
30
0
40
0.14999999999999949
0
LWPOLYLINE
5
110
100
AcDbEntity
8
0
100
AcDbPolyline
90
34
70
1
43
0.0
10
-0.25361920401139315
20
20.312891869202865
10
-0.85543422716335726
20
19.51425635915551
10
-0.45611647213968354
20
19.213348847579525
10
-0.75702398371566915
20
18.814031092555847
10
-1.1563417387393429
20
19.114938604131833
10
-1.7581567618913141
20
18.316303094084478
10
-1.3588390068676333
20
18.015395582508496
10
-3.258156761904722
20
18.015395582508496
10
-3.258156761904722
20
19.515072642010551
10
-3.758156761904722
20
19.515072642010551
10
-3.758156761904722
20
20.990072642010549
10
-3.258156761904722
20
20.990072642010549
10
-3.258156761904722
20
22.515072642010551
10
-3.758156761904722
20
22.515072642010551
10
-3.758156761904722
20
23.990072642010549
10
-3.258156761904722
20
23.990072642010549
10
-3.258156761904722
20
25.515072642010551
10
-3.758156761904722
20
25.515072642010551
10
-3.758156761904722
20
26.056072642010548
10
-2.5348459558846699
20
26.056072642010548
10
-2.5348459558846699
20
26.556072642010548
10
-1.5348459558846699
20
26.556072642010548
10
-1.5348459558846699
20
26.056072642010548
10
-0.53484595588466988
20
26.056072642010548
10
-0.53484595588466988
20
26.556072642010548
10
-0.034845955884669877
20
26.556072642010548
10
-0.034845955884669877
20
25.288072642010547
10
0.46515404411533012
20
25.288072642010547
10
0.46515404411533012
20
23.81307264201055
10
-0.034845955909659665
20
23.813072642015104
10
-0.03484595592354367
20
22.288072642015102
10
0.46518410166447666
20
22.288072642015102
10
0.465195008937485
20
20.435970477642663
10
0.14569855101228768
20
20.011984357626879
0
LWPOLYLINE
5
111
100
AcDbEntity
8
0
100
AcDbPolyline
90
24
70
1
43
0.0
10
-2.4680480018413746
20
31.588072642010545
10
-2.4680480018413746
20
32.088072642010545
10
-0.99304800184137321
20
32.088072642010545
10
-0.99304800184137321
20
31.588072642010545
10
0.50695199815862679
20
31.588072642010545
10
0.50695199815862679
20
27.588072642010545
10
-0.99304800184137321
20
27.588072642010545
10
-0.99304800184137321
20
27.088072642010545
10
-2.4680480018413746
20
27.088072642010545
10
-2.4680480018413746
20
27.588072642010545
10
-3.9930480018413732
20
27.588072642010545
10
-3.9930480018413732
20
27.088072642010545
10
-5.2360480018413753
20
27.088072642010545
10
-5.2360480018413753
20
28.088072642010545
10
-4.7360480018413753
20
28.088072642010545
10
-4.7360480018413753
20
29.088072642010545
10
-5.2360480018413753
20
29.088072642010545
10
-5.2360480018413753
20
30.088072642010545
10
-4.7360480018413753
20
30.088072642010545
10
-4.7360480018413753
20
31.088072642010545
10
-5.2360480018413753
20
31.088072642010545
10
-5.2360480018413753
20
32.088072642010545
10
-3.9930480018413732
20
32.088072642010545
10
-3.9930480018413732
20
31.588072642010545
0
LWPOLYLINE
5
112
100
AcDbEntity
8
0
100
AcDbPolyline
90
24
70
1
43
0.0
10
11.506951998158627
20
46.088072642010545
10
13.031951998158625
20
46.088072642010545
10
13.031951998158625
20
46.588072642010545
10
14.506951998158627
20
46.588072642010545
10
14.506951998158627
20
46.088072642010545
10
16.006951998158627
20
46.088072642010545
10
16.006951998158627
20
42.088072642010545
10
14.506951998158627
20
42.088072642010545
10
14.506951998158627
20
41.588072642010545
10
13.031951998158625
20
41.588072642010545
10
13.031951998158625
20
42.088072642010545
10
11.506951998158627
20
42.088072642010545
10
11.506951998158627
20
41.588072642010545
10
10.263951998158625
20
41.588072642010545
10
10.263951998158625
20
42.588072642010545
10
10.763951998158625
20
42.588072642010545
10
10.763951998158625
20
43.588072642010545
10
10.263951998158625
20
43.588072642010545
10
10.263951998158625
20
44.588072642010545
10
10.763951998158625
20
44.588072642010545
10
10.763951998158625
20
45.588072642010545
10
10.263951998158625
20
45.588072642010545
10
10.263951998158625
20
46.588072642010545
10
11.506951998158627
20
46.588072642010545
0
LWPOLYLINE
5
113
100
AcDbEntity
8
0
100
AcDbPolyline
90
36
70
1
43
0.0
10
3.9824393614143005
20
45.367820597187311
10
2.9324393614142963
20
45.367820597187311
10
2.9324393614142963
20
45.867820597187311
10
1.9824393614143005
20
45.867820597187311
10
1.9824393614143005
20
45.367820597187311
10
1.457439361414302
20
45.367820597187311
10
1.457439361414302
20
44.842820597187313
10
0.95743936141430197
20
44.842820597187313
10
0.95743936141430197
20
43.89282059718731
10
1.457439361414302
20
43.89282059718731
10
1.457439361414302
20
42.842820597187313
10
0.95743936141430197
20
42.842820597187313
10
0.95743936141430197
20
41.644820597187312
10
1.4324393614142963
20
41.644820597187312
10
1.4324393614142963
20
42.144820597187312
10
1.9824393614143005
20
42.144820597187312
10
1.9824393614143005
20
41.644820597187312
10
2.9324393614142963
20
41.644820597187312
10
2.9324393614142963
20
42.144820597187312
10
3.9824393614143005
20
42.144820597187312
10
3.9824393614143005
20
41.644820597187312
10
4.9324393614142963
20
41.644820597187312
10
4.9324393614142963
20
42.144820597187312
10
5.4824393614143005
20
42.144820597187312
10
5.4824393614143005
20
41.644820597187312
10
5.957439361414302
20
41.644820597187312
10
5.957439361414302
20
42.842820597187313
10
5.457439361414302
20
42.842820597187313
10
5.457439361414302
20
43.89282059718731
10
5.957439361414302
20
43.89282059718731
10
5.957439361414302
20
44.842820597187313
10
5.457439361414302
20
44.842820597187313
10
5.457439361414302
20
45.367820597187311
10
4.9324393614142963
20
45.367820597187311
10
4.9324393614142963
20
45.867820597187311
10
3.9824393614143005
20
45.867820597187311
0
LWPOLYLINE
5
114
100
AcDbEntity
8
0
100
AcDbPolyline
90
4
70
1
43
0.0
10
16.905337214210391
20
-2.9542420065454067
10
18.204375319887049
20
-2.2042420065454067
10
16.204375319887049
20
1.2598596085923504
10
14.905337214210391
20
0.50985960859235036
0
LWPOLYLINE
5
115
100
AcDbEntity
8
0
100
AcDbPolyline
90
36
70
1
43
0.0
10
-14.042560638585698
20
30.342820597187313
10
-14.042560638585698
20
30.867820597187311
10
-13.517560638585699
20
30.867820597187311
10
-13.517560638585699
20
31.367820597187311
10
-12.567560638585704
20
31.367820597187311
10
-12.567560638585704
20
30.867820597187311
10
-11.517560638585699
20
30.867820597187311
10
-11.517560638585699
20
31.367820597187311
10
-10.567560638585704
20
31.367820597187311
10
-10.567560638585704
20
30.867820597187311
10
-10.042560638585698
20
30.867820597187311
10
-10.042560638585698
20
30.342820597187313
10
-9.542560638585698
20
30.342820597187313
10
-9.542560638585698
20
29.392820597187313
10
-10.042560638585698
20
29.392820597187313
10
-10.042560638585698
20
28.342820597187313
10
-9.542560638585698
20
28.342820597187313
10
-9.542560638585698
20
27.144820597187312
10
-10.017560638585699
20
27.144820597187312
10
-10.017560638585699
20
27.644820597187312
10
-10.567560638585704
20
27.644820597187312
10
-10.567560638585704
20
27.144820597187312
10
-11.517560638585699
20
27.144820597187312
10
-11.517560638585699
20
27.644820597187312
10
-12.567560638585704
20
27.644820597187312
10
-12.567560638585704
20
27.144820597187312
10
-13.517560638585699
20
27.144820597187312
10
-13.517560638585699
20
27.644820597187312
10
-14.067560638585704
20
27.644820597187312
10
-14.067560638585704
20
27.144820597187312
10
-14.542560638585698
20
27.144820597187312
10
-14.542560638585698
20
28.342820597187313
10
-14.042560638585698
20
28.342820597187313
10
-14.042560638585698
20
29.392820597187313
10
-14.542560638585698
20
29.392820597187313
10
-14.542560638585698
20
30.342820597187313
0
CIRCLE
5
116
100
AcDbEntity
8
0
100
AcDbCircle
10
33.658857991791393
20
9.0278088010234718
30
0
40
0.14999999999999913
0
CIRCLE
5
117
100
AcDbEntity
8
0
100
AcDbCircle
10
24.998603953946997
20
4.0278088010234718
30
0
40
0.14999999999999872
0
LWPOLYLINE
5
118
100
AcDbEntity
8
0
100
AcDbPolyline
90
4
70
1
43
0.0
10
9.0918706936836031
20
0.5098596085923468
10
7.0918706936836031
20
-2.9542420065454067
10
5.7928325880069451
20
-2.2042420065454067
10
7.7928325880069451
20
1.2598596085923468
0
LWPOLYLINE
5
119
100
AcDbEntity
8
0
100
AcDbPolyline
90
32
70
1
43
0.0
10
-9.2425606385857009
20
21.015395582508496
10
-8.7425606385857009
20
21.015395582508496
10
-8.7425606385857009
20
19.490395582508494
10
-9.2425606385857009
20
19.490395582508494
10
-9.2425606385857009
20
18.015395582508496
10
-4.2425606385857009
20
18.015395582508496
10
-4.2425606385857009
20
19.490395582508494
10
-4.7425606385857009
20
19.490395582508494
10
-4.7425606385857009
20
21.015395582508496
10
-4.2425606385857009
20
21.015395582508496
10
-4.2425606385857009
20
22.490395582508494
10
-4.7425606385857009
20
22.490395582508494
10
-4.7425606385857009
20
24.015395582508496
10
-4.2425606385857009
20
24.015395582508496
10
-4.2425606385857009
20
25.490395582508494
10
-4.7425606385857009
20
25.490395582508494
10
-4.7425606385857009
20
26.556395582508493
10
-5.2426414111888135
20
26.556355208425067
10
-5.2426010208135381
20
26.056072642010548
10
-6.2426010208135381
20
26.056072642010548
10
-6.2426010208135381
20
26.556274476561502
10
-7.2426010175544562
20
26.556193741437276
10
-7.2425606402152383
20
26.056072642010548
10
-8.2425606402152383
20
26.056072642010548
10
-8.2425606402152383
20
26.556113009572663
10
-8.7425606385857009
20
26.556072642010548
10
-8.7425606385857009
20
25.490395582508494
10
-9.2425606385857009
20
25.490395582508494
10
-9.2425606385857009
20
24.015395582508496
10
-8.7425606385857009
20
24.015395582508496
10
-8.7425606385857009
20
22.490395582508494
10
-9.2425606385857009
20
22.490395582508494
0
LWPOLYLINE
5
120
100
AcDbEntity
8
0
100
AcDbPolyline
90
34
70
1
43
0.0
10
-14.081156761904722
20
20.436072642010551
10
-13.761635922202956
20
20.012028362022122
10
-13.362309366300224
20
20.312924194081774
10
-12.760517702180934
20
19.514271082276316
10
-13.159844258083666
20
19.213375250216675
10
-12.858948426024021
20
18.814048694313946
10
-12.459621870121296
20
19.114944526373591
10
-11.857830206001999
20
18.316291414568141
10
-12.257156761904724
20
18.015395582508493
10
-10.358156761904723
20
18.015395582508493
10
-10.358156761904723
20
19.515072642010551
10
-9.8581567619047235
20
19.515072642010551
10
-9.8581567619047235
20
20.990072642010549
10
-10.358156761904723
20
20.990072642010549
10
-10.358156761904723
20
22.515072642010551
10
-9.8581567619047235
20
22.515072642010551
10
-9.8581567619047235
20
23.990072642010549
10
-10.358156761904723
20
23.990072642010549
10
-10.358156761904723
20
25.515072642010551
10
-9.858156762096101
20
25.515072642010551
10
-9.8581567619047235
20
26.056072642010548
10
-11.081156761904722
20
26.056072642010548
10
-11.081156761904722
20
26.556072642010548
10
-12.081156761904722
20
26.556072642010548
10
-12.081156761904722
20
26.056072642010548
10
-13.081156761904722
20
26.056072642010548
10
-13.081156761904722
20
26.556072642010548
10
-13.581156761904722
20
26.556072642010548
10
-13.581156761904722
20
25.288072642010547
10
-14.081156761904722
20
25.288072642010547
10
-14.081156761904722
20
23.81307264201055
10
-13.581156761904722
20
23.81307264201055
10
-13.581156761904722
20
22.288072642010547
10
-14.081156761904722
20
22.288072642010547
0
CIRCLE
5
121
100
AcDbEntity
8
0
100
AcDbCircle
10
16.338349916102601
20
9.0278088010234718
30
0
40
0.14999999999999675
0
LWPOLYLINE
5
122
100
AcDbEntity
8
0
100
AcDbPolyline
90
4
70
1
43
0.0
10
35.091870693683603
20
0.5098596085923468
10
33.091870693683603
20
-2.9542420065454067
10
31.792832588006945
20
-2.2042420065454067
10
33.792832588006945
20
1.2598596085923468
0
CIRCLE
5
123
100
AcDbEntity
8
0
100
AcDbCircle
10
30.748603953946969
20
1.0278088010234789
30
0
40
0.14999999999999969
0
CIRCLE
5
124
100
AcDbEntity
8
0
100
AcDbCircle
10
24.998603953946997
20
-5.9721911989765282
30
0
40
0.14999999999999858
0
CIRCLE
5
125
100
AcDbEntity
8
0
100
AcDbCircle
10
19.248603953947026
20
1.0278088010234789
30
0
40
0.15000000000000568
0
CIRCLE
5
126
100
AcDbEntity
8
0
100
AcDbCircle
10
8.4661328335226784
20
4.4606129709728979
30
0
40
0.14999999999999905
0
CIRCLE
5
127
100
AcDbEntity
8
0
100
AcDbCircle
10
30.748603953946969
20
7.0278088010234576
30
0
40
0.14999999999999969
0
CIRCLE
5
128
100
AcDbEntity
8
0
100
AcDbCircle
10
34.466132833522686
20
4.4606129709728961
30
0
40
0.14999999999999858
0
LWPOLYLINE
5
129
100
AcDbEntity
8
0
100
AcDbPolyline
90
34
70
1
43
0.0
10
-10.358156761904723
20
32.515395582508489
10
-10.358156761904723
20
34.015072642010551
10
-9.8581567619047235
20
34.015072642010551
10
-9.8581567619047235
20
35.490072642010546
10
-10.358156761904723
20
35.490072642010546
10
-10.358156761904723
20
37.015072642010551
10
-9.8581567619047235
20
37.015072642010551
10
-9.8581567619047235
20
38.490072642010546
10
-10.358156761904723
20
38.490072642010546
10
-10.358156761904723
20
40.015072642010551
10
-9.858156762096101
20
40.015072642010551
10
-9.8581567619047235
20
40.556072642010548
10
-11.081156761904722
20
40.556072642010548
10
-11.081156761904722
20
41.056072642010548
10
-12.081156761904722
20
41.056072642010548
10
-12.081156761904722
20
40.556072642010548
10
-13.081156761904722
20
40.556072642010548
10
-13.081156761904722
20
41.056072642010548
10
-13.581156761904722
20
41.056072642010548
10
-13.581156761904722
20
39.788072642010547
10
-14.081156761904722
20
39.788072642010547
10
-14.081156761904722
20
38.313072642010553
10
-13.581156761904722
20
38.313072642010553
10
-13.581156761904722
20
36.788072642010547
10
-14.081156761904722
20
36.788072642010547
10
-14.081156761904722
20
34.936072642010551
10
-13.761635922202956
20
34.512028362022122
10
-13.362309366300224
20
34.812924194081774
10
-12.760517702180934
20
34.014271082276316
10
-13.159844258083666
20
33.713375250216671
10
-12.858948426024021
20
33.314048694313946
10
-12.459621870121296
20
33.614944526373591
10
-11.857830206001999
20
32.816291414568141
10
-12.257156761904724
20
32.515395582508489
0
LWPOLYLINE
5
130
100
AcDbEntity
8
0
100
AcDbPolyline
90
32
70
1
43
0.0
10
-8.7425606385857009
20
35.515395582508496
10
-8.7425606385857009
20
33.990395582508498
10
-9.2425606385857009
20
33.990395582508498
10
-9.2425606385857009
20
32.515395582508496
10
-4.2425606385857009
20
32.515395582508496
10
-4.2425606385857009
20
33.990395582508498
10
-4.7425606385857009
20
33.990395582508498
10
-4.7425606385857009
20
35.515395582508496
10
-4.2425606385857009
20
35.515395582508496
10
-4.2425606385857009
20
36.990395582508498
10
-4.7425606385857009
20
36.990395582508498
10
-4.7425606385857009
20
38.515395582508496
10
-4.2425606385857009
20
38.515395582508496
10
-4.2425606385857009
20
39.990395582508498
10
-4.7425606385857009
20
39.990395582508498
10
-4.7425606385857009
20
41.056395582508493
10
-5.2426414111888135
20
41.056355208425067
10
-5.2426010208135381
20
40.556072642010548
10
-6.2426010208135381
20
40.556072642010548
10
-6.2426010208135381
20
41.056274476561498
10
-7.2426010175544562
20
41.056193741437276
10
-7.2425606402152383
20
40.556072642010548
10
-8.2425606402152383
20
40.556072642010548
10
-8.2425606402152383
20
41.056113009572663
10
-8.7425606385857009
20
41.056072642010548
10
-8.7425606385857009
20
39.990395582508498
10
-9.2425606385857009
20
39.990395582508498
10
-9.2425606385857009
20
38.515395582508496
10
-8.7425606385857009
20
38.515395582508496
10
-8.7425606385857009
20
36.990395582508498
10
-9.2425606385857009
20
36.990395582508498
10
-9.2425606385857009
20
35.515395582508496
0
CIRCLE
5
131
100
AcDbEntity
8
0
100
AcDbCircle
10
19.934426181471082
20
11.956658362277313
30
0
40
0.15000000000000036
0
CIRCLE
5
132
100
AcDbEntity
8
0
100
AcDbCircle
10
20.664107697354027
20
-4.3223225798480804
30
0
40
0.14999999999999536
0
LWPOLYLINE
5
133
100
AcDbEntity
8
0
100
AcDbPolyline
90
16
70
1
43
0.0
10
-8.4584277350266461
20
31.583575921921231
10
-8.4584277350266461
20
32.083575921921231
10
-7.4584277350266461
20
32.083575921921231
10
-7.4584277350266461
20
31.583575921921231
10
-6.9584277350266461
20
31.583575921921231
10
-6.9584277350266461
20
32.083575921921231
10
-5.9584277350266461
20
32.083575921921231
10
-5.9584277350266461
20
27.083575921921231
10
-6.9584277350266461
20
27.083575921921231
10
-6.9584277350266461
20
27.583575921921231
10
-7.4584277350266461
20
27.583575921921227
10
-7.4584277350266461
20
27.083575921921227
10
-8.4584277350266461
20
27.083575921921227
10
-8.4584277350266461
20
27.583575921921227
10
-8.9894277350266449
20
27.583575921921227
10
-8.9894277350266449
20
31.583575921921231
0
CIRCLE
5
134
100
AcDbEntity
8
0
100
AcDbCircle
10
24.998603953946997
20
4.0278088010234718
30
0
40
12.500000000000002
0
CIRCLE
5
135
100
AcDbEntity
8
0
100
AcDbCircle
10
24.998603953946997
20
4.0278088010234718
30
0
40
12.500000000000004
0
CIRCLE
5
136
100
AcDbEntity
8
0
100
AcDbCircle
10
23.548603953946994
20
7.0278088010234576
30
0
40
0.15000000000000002
0
CIRCLE
5
137
100
AcDbEntity
8
0
100
AcDbCircle
10
-7.8084277350266404
20
31.01357592192123
30
0
40
0.15000000000000038
0
CIRCLE
5
138
100
AcDbEntity
8
0
100
AcDbCircle
10
-6.6084277350266447
20
31.01357592192123
30
0
40
0.15000000000000022
0
CIRCLE
5
139
100
AcDbEntity
8
0
100
AcDbCircle
10
2.0274393614142951
20
43.15632059718731
30
0
40
0.14999999999999916
0
CIRCLE
5
140
100
AcDbEntity
8
0
100
AcDbCircle
10
23.072413812893032
20
24.617083672588251
30
0
40
0.14999999999999858
0
CIRCLE
5
141
100
AcDbEntity
8
0
100
AcDbCircle
10
2.0274393614142951
20
44.356320597187313
30
0
40
0.15000000000000044
0
LWPOLYLINE
5
142
100
AcDbEntity
8
0
100
AcDbPolyline
90
24
70
1
43
0.0
10
-0.99304800184137321
20
41.588072642010545
10
-0.99304800184137321
20
42.088072642010545
10
0.50695199815862679
20
42.088072642010545
10
0.50695199815862679
20
46.088072642010545
10
-0.99304800184137321
20
46.088072642010545
10
-0.99304800184137321
20
46.588072642010545
10
-2.4680480018413746
20
46.588072642010545
10
-2.4680480018413746
20
46.088072642010545
10
-3.9930480018413732
20
46.088072642010545
10
-3.9930480018413732
20
46.588072642010545
10
-5.2360480018413753
20
46.588072642010545
10
-5.2360480018413753
20
45.588072642010545
10
-4.7360480018413753
20
45.588072642010545
10
-4.7360480018413753
20
44.588072642010545
10
-5.2360480018413753
20
44.588072642010545
10
-5.2360480018413753
20
43.588072642010545
10
-4.7360480018413753
20
43.588072642010545
10
-4.7360480018413753
20
42.588072642010545
10
-5.2360480018413753
20
42.588072642010545
10
-5.2360480018413753
20
41.588072642010545
10
-3.9930480018413732
20
41.588072642010545
10
-3.9930480018413732
20
42.088072642010545
10
-2.4680480018413746
20
42.088072642010545
10
-2.4680480018413746
20
41.588072642010545
0
CIRCLE
5
143
100
AcDbEntity
8
0
100
AcDbCircle
10
22.034049353755485
20
24.017583672588252
30
0
40
0.15000000000000152
0
CIRCLE
5
144
100
AcDbEntity
8
0
100
AcDbCircle
10
33
20
22
30
0
40
0.15000000000000221
0
CIRCLE
5
145
100
AcDbEntity
8
0
100
AcDbCircle
10
43.965950646244508
20
24.017583672588255
30
0
40
0.14999999999999905
0
LWPOLYLINE
5
146
100
AcDbEntity
8
0
100
AcDbPolyline
90
4
70
1
43
0.0
10
26.998603953946997
20
14.527808801023472
10
26.998603953946997
20
13.027808801023472
10
22.998603953946997
20
13.027808801023472
10
22.998603953946997
20
14.527808801023472
0
CIRCLE
5
147
100
AcDbEntity
8
0
100
AcDbCircle
10
42.927586187106968
20
24.617083672588258
30
0
40
0.15000000000000044
0
CIRCLE
5
148
100
AcDbEntity
8
0
100
AcDbCircle
10
-13.472560638585705
20
28.65632059718731
30
0
40
0.14999999999999916
0
CIRCLE
5
149
100
AcDbEntity
8
0
100
AcDbCircle
10
-13.472560638585705
20
29.856320597187313
30
0
40
0.15000000000000044
0
CIRCLE
5
150
100
AcDbEntity
8
0
100
AcDbCircle
10
4.8874393614142946
20
43.15632059718731
30
0
40
0.14999999999999938
0
LWPOLYLINE
5
151
100
AcDbEntity
8
0
100
AcDbPolyline
90
16
70
1
43
0.0
10
8.0415722649733539
20
41.583575921921224
10
8.0415722649733539
20
42.083575921921224
10
8.5415722649733539
20
42.083575921921231
10
8.5415722649733539
20
41.583575921921231
10
9.5415722649733539
20
41.583575921921231
10
9.5415722649733539
20
46.583575921921231
10
8.5415722649733539
20
46.583575921921231
10
8.5415722649733539
20
46.083575921921231
10
8.0415722649733539
20
46.083575921921231
10
8.0415722649733539
20
46.583575921921231
10
7.0415722649733539
20
46.583575921921231
10
7.0415722649733539
20
46.083575921921231
10
6.5105722649733551
20
46.083575921921231
10
6.5105722649733551
20
42.083575921921224
10
7.0415722649733539
20
42.083575921921224
10
7.0415722649733539
20
41.583575921921224
0
CIRCLE
5
152
100
AcDbEntity
8
0
100
AcDbCircle
10
-10.612560638585705
20
28.65632059718731
30
0
40
0.14999999999999938
0
CIRCLE
5
153
100
AcDbEntity
8
0
100
AcDbCircle
10
-10.612560638585705
20
29.856320597187313
30
0
40
0.15000000000000036
0
CIRCLE
5
154
100
AcDbEntity
8
0
100
AcDbCircle
10
4.8874393614142946
20
44.356320597187313
30
0
40
0.15000000000000036
0
LWPOLYLINE
5
155
100
AcDbEntity
8
0
100
AcDbPolyline
90
36
70
1
43
0.0
10
-9.542560638585698
20
43.89282059718731
10
-9.542560638585698
20
44.842820597187313
10
-10.042560638585698
20
44.842820597187313
10
-10.042560638585698
20
45.367820597187311
10
-10.567560638585704
20
45.367820597187311
10
-10.567560638585704
20
45.867820597187311
10
-11.517560638585699
20
45.867820597187311
10
-11.517560638585699
20
45.367820597187311
10
-12.567560638585704
20
45.367820597187311
10
-12.567560638585704
20
45.867820597187311
10
-13.517560638585699
20
45.867820597187311
10
-13.517560638585699
20
45.367820597187311
10
-14.042560638585698
20
45.367820597187311
10
-14.042560638585698
20
44.842820597187313
10
-14.542560638585698
20
44.842820597187313
10
-14.542560638585698
20
43.89282059718731
10
-14.042560638585698
20
43.89282059718731
10
-14.042560638585698
20
42.842820597187313
10
-14.542560638585698
20
42.842820597187313
10
-14.542560638585698
20
41.644820597187312
10
-14.067560638585704
20
41.644820597187312
10
-14.067560638585704
20
42.144820597187312
10
-13.517560638585699
20
42.144820597187312
10
-13.517560638585699
20
41.644820597187312
10
-12.567560638585704
20
41.644820597187312
10
-12.567560638585704
20
42.144820597187312
10
-11.517560638585699
20
42.144820597187312
10
-11.517560638585699
20
41.644820597187312
10
-10.567560638585704
20
41.644820597187312
10
-10.567560638585704
20
42.144820597187312
10
-10.017560638585699
20
42.144820597187312
10
-10.017560638585699
20
41.644820597187312
10
-9.542560638585698
20
41.644820597187312
10
-9.542560638585698
20
42.842820597187313
10
-10.042560638585698
20
42.842820597187313
10
-10.042560638585698
20
43.89282059718731
0
LWPOLYLINE
5
156
100
AcDbEntity
8
0
100
AcDbPolyline
90
16
70
1
43
0.0
10
-7.4584277350266461
20
41.583575921921224
10
-7.4584277350266461
20
42.083575921921224
10
-6.9584277350266461
20
42.083575921921231
10
-6.9584277350266461
20
41.583575921921231
10
-5.9584277350266461
20
41.583575921921231
10
-5.9584277350266461
20
46.583575921921231
10
-6.9584277350266461
20
46.583575921921231
10
-6.9584277350266461
20
46.083575921921231
10
-7.4584277350266461
20
46.083575921921231
10
-7.4584277350266461
20
46.583575921921231
10
-8.4584277350266461
20
46.583575921921231
10
-8.4584277350266461
20
46.083575921921231
10
-8.9894277350266449
20
46.083575921921231
10
-8.9894277350266449
20
42.083575921921224
10
-8.4584277350266461
20
42.083575921921224
10
-8.4584277350266461
20
41.583575921921224
0
CIRCLE
5
157
100
AcDbEntity
8
0
100
AcDbCircle
10
-6.6084277350266447
20
42.653575921921231
30
0
40
0.15000000000000038
0
CIRCLE
5
158
100
AcDbEntity
8
0
100
AcDbCircle
10
-7.8084277350266404
20
45.51357592192123
30
0
40
0.15000000000000038
0
CIRCLE
5
159
100
AcDbEntity
8
0
100
AcDbCircle
10
-7.8084277350266404
20
42.653575921921224
30
0
40
0.14999999999999949
0
CIRCLE
5
160
100
AcDbEntity
8
0
100
AcDbCircle
10
-6.6084277350266447
20
45.51357592192123
30
0
40
0.15000000000000022
0
LWPOLYLINE
5
161
100
AcDbEntity
8
0
100
AcDbPolyline
90
16
70
1
43
0.0
10
7.0415722649733539
20
27.583575921921227
10
7.0415722649733539
20
27.083575921921227
10
8.0415722649733539
20
27.083575921921227
10
8.0415722649733539
20
27.583575921921227
10
8.5415722649733539
20
27.583575921921231
10
8.5415722649733539
20
27.083575921921231
10
9.5415722649733539
20
27.083575921921231
10
9.5415722649733539
20
32.083575921921231
10
8.5415722649733539
20
32.083575921921231
10
8.5415722649733539
20
31.583575921921231
10
8.0415722649733539
20
31.583575921921231
10
8.0415722649733539
20
32.083575921921231
10
7.0415722649733539
20
32.083575921921231
10
7.0415722649733539
20
31.583575921921231
10
6.5105722649733551
20
31.583575921921231
10
6.5105722649733551
20
27.583575921921227
0
CIRCLE
5
162
100
AcDbEntity
8
0
100
AcDbCircle
10
8.8915722649733553
20
31.01357592192123
30
0
40
0.15000000000000022
0
CIRCLE
5
163
100
AcDbEntity
8
0
100
AcDbCircle
10
7.6915722649733596
20
31.01357592192123
30
0
40
0.15000000000000038
0
CIRCLE
5
164
100
AcDbEntity
8
0
100
AcDbCircle
10
2.0274393614142951
20
29.856320597187313
30
0
40
0.15000000000000044
0
CIRCLE
5
165
100
AcDbEntity
8
0
100
AcDbCircle
10
33
20
32
30
0
40
15.20690632574555
0
CIRCLE
5
166
100
AcDbEntity
8
0
100
AcDbCircle
10
2.0274393614142951
20
28.65632059718731
30
0
40
0.14999999999999916
0
LWPOLYLINE
5
167
100
AcDbEntity
8
0
100
AcDbPolyline
90
4
70
1
43
0.0
10
38.49519052838329
20
26.517949192431125
10
39.794228634059948
20
25.767949192431125
10
41.794228634059948
20
29.232050807568879
10
40.49519052838329
20
29.982050807568879
0
CIRCLE
5
168
100
AcDbEntity
8
0
100
AcDbCircle
10
-1.0013960460530029
20
4.0278088010234718
30
0
40
12.500000000000002
0
LINE
5
169
100
AcDbEntity
8
0
100
AcDbLine
10
31
20
39.5
30
0
11
35
21
39.5
31
0
0
LINE
5
170
100
AcDbEntity
8
0
100
AcDbLine
10
35
20
41
30
0
11
35
21
39.5
31
0
0
CIRCLE
5
171
100
AcDbEntity
8
0
100
AcDbCircle
10
-1.0013960460530029
20
4.0278088010234718
30
0
40
12.500000000000004
0
LWPOLYLINE
5
172
100
AcDbEntity
8
0
100
AcDbPolyline
90
4
70
1
43
0.0
10
26.205771365940052
20
25.767949192431121
10
27.50480947161671
20
26.517949192431121
10
25.50480947161671
20
29.982050807568875
10
24.205771365940052
20
29.232050807568875
0
CIRCLE
5
173
100
AcDbEntity
8
0
100
AcDbCircle
10
34.43
20
45.488
30
0
40
0.14999999999999916
0
CIRCLE
5
174
100
AcDbEntity
8
0
100
AcDbCircle
10
24.339745962155611
20
37
30
0
40
0.15000000000000036
0
CIRCLE
5
175
100
AcDbEntity
8
0
100
AcDbCircle
10
45.395950646244508
20
26.494416327411749
30
0
40
0.14999999999999847
0
CIRCLE
5
176
100
AcDbEntity
8
0
100
AcDbCircle
10
21.642413812893025
20
27.093916327411744
30
0
40
0.1500000000000008
0
LINE
5
177
100
AcDbEntity
8
0
100
AcDbLine
10
35
20
41
30
0
11
31
21
41
31
0
0
CIRCLE
5
178
100
AcDbEntity
8
0
100
AcDbCircle
10
20.604049353755492
20
26.494416327411749
30
0
40
0.1500000000000008
0
CIRCLE
5
179
100
AcDbEntity
8
0
100
AcDbCircle
10
34.43
20
44.289000000000001
30
0
40
0.15000000000000002
0
CIRCLE
5
180
100
AcDbEntity
8
0
100
AcDbCircle
10
4.8874393614142946
20
29.856320597187313
30
0
40
0.15000000000000036
0
CIRCLE
5
181
100
AcDbEntity
8
0
100
AcDbCircle
10
44.357586187106968
20
27.093916327411748
30
0
40
0.15000000000000038
0
CIRCLE
5
182
100
AcDbEntity
8
0
100
AcDbCircle
10
31.57
20
45.488
30
0
40
0.14999999999999858
0
LINE
5
183
100
AcDbEntity
8
0
100
AcDbLine
10
31
20
41
30
0
11
31
21
39.5
31
0
0
CIRCLE
5
184
100
AcDbEntity
8
0
100
AcDbCircle
10
4.8874393614142946
20
28.65632059718731
30
0
40
0.14999999999999938
0
CIRCLE
5
185
100
AcDbEntity
8
0
100
AcDbCircle
10
31.57
20
44.289000000000001
30
0
40
0.15000000000000036
0
CIRCLE
5
186
100
AcDbEntity
8
0
100
AcDbCircle
10
41.660254037844389
20
37
30
0
40
0.15000000000000036
0
CIRCLE
5
187
100
AcDbEntity
8
0
100
AcDbCircle
10
33
20
32
30
0
40
15.206906325745548
0
CIRCLE
5
188
100
AcDbEntity
8
0
100
AcDbCircle
10
7.6915722649733596
20
42.653575921921224
30
0
40
0.14999999999999949
0
CIRCLE
5
189
100
AcDbEntity
8
0
100
AcDbCircle
10
-6.6084277350266447
20
28.153575921921231
30
0
40
0.15000000000000038
0
CIRCLE
5
190
100
AcDbEntity
8
0
100
AcDbCircle
10
7.6915722649733596
20
45.51357592192123
30
0
40
0.15000000000000038
0
CIRCLE
5
191
100
AcDbEntity
8
0
100
AcDbCircle
10
8.8915722649733553
20
42.653575921921231
30
0
40
0.15000000000000038
0
CIRCLE
5
192
100
AcDbEntity
8
0
100
AcDbCircle
10
8.8915722649733553
20
45.51357592192123
30
0
40
0.15000000000000022
0
CIRCLE
5
193
100
AcDbEntity
8
0
100
AcDbCircle
10
-10.612560638585705
20
44.356320597187313
30
0
40
0.15000000000000036
0
CIRCLE
5
194
100
AcDbEntity
8
0
100
AcDbCircle
10
-13.472560638585705
20
44.356320597187313
30
0
40
0.15000000000000044
0
CIRCLE
5
195
100
AcDbEntity
8
0
100
AcDbCircle
10
-10.612560638585705
20
43.15632059718731
30
0
40
0.14999999999999938
0
CIRCLE
5
196
100
AcDbEntity
8
0
100
AcDbCircle
10
-13.472560638585705
20
43.15632059718731
30
0
40
0.14999999999999916
0
LWPOLYLINE
5
197
100
AcDbEntity
8
0
100
AcDbPolyline
90
4
70
1
43
0.0
10
0.99860395394699708
20
13.027808801023472
10
-3.0013960460530029
20
13.027808801023472
10
-3.0013960460530029
20
14.527808801023472
10
0.99860395394699708
20
14.527808801023472
0
CIRCLE
5
198
100
AcDbEntity
8
0
100
AcDbCircle
10
-2.4513960460530058
20
7.0278088010234576
30
0
40
0.15000000000000002
0
CIRCLE
5
199
100
AcDbEntity
8
0
100
AcDbCircle
10
4.7486039539469687
20
7.0278088010234576
30
0
40
0.14999999999999969
0
CIRCLE
5
200
100
AcDbEntity
8
0
100
AcDbCircle
10
-1.0013960460530029
20
4.0278088010234718
30
0
40
0.14999999999999872
0
LWPOLYLINE
5
201
100
AcDbEntity
8
0
100
AcDbPolyline
90
4
70
1
43
0.0
10
-11.094662785789609
20
0.50985960859235036
10
-9.094662785789609
20
-2.9542420065454067
10
-7.795624680112951
20
-2.2042420065454067
10
-9.795624680112951
20
1.2598596085923504
0
CIRCLE
5
202
100
AcDbEntity
8
0
100
AcDbCircle
10
-6.0655738185289181
20
11.956658362277313
30
0
40
0.14999999999999858
0
CIRCLE
5
203
100
AcDbEntity
8
0
100
AcDbCircle
10
-5.3358923026459735
20
-4.3223225798480804
30
0
40
0.14999999999999536
0
CIRCLE
5
204
100
AcDbEntity
8
0
100
AcDbCircle
10
-6.7513960460529745
20
1.0278088010234789
30
0
40
0.15000000000000568
0
CIRCLE
5
205
100
AcDbEntity
8
0
100
AcDbCircle
10
4.7486039539469687
20
1.0278088010234789
30
0
40
0.14999999999999969
0
CIRCLE
5
206
100
AcDbEntity
8
0
100
AcDbCircle
10
7.6915722649733596
20
28.153575921921224
30
0
40
0.14999999999999949
0
CIRCLE
5
207
100
AcDbEntity
8
0
100
AcDbCircle
10
8.8915722649733553
20
28.153575921921231
30
0
40
0.15000000000000038
0
ENDSEC
0
SECTION
2
OBJECTS
0
DICTIONARY
5
C
100
AcDbDictionary
3
ACAD_GROUP
350
D
3
ACAD_MLINESTYLE
350
17
0
DICTIONARY
5
D
100
AcDbDictionary
0
DICTIONARY
5
1A
330
C
100
AcDbDictionary
0
DICTIONARY
5
17
100
AcDbDictionary
0
ENDSEC
0
EOF
